<?xml version="1.0" encoding="UTF-8" standalone="no"?>
<!DOCTYPE svg PUBLIC "-//W3C//DTD SVG 1.1//EN"
 "http://www.w3.org/Graphics/SVG/1.1/DTD/svg11.dtd">
<!-- Generated by graphviz version 2.50.0 (0)
 -->
<!-- Pages: 1 -->
<svg width="444pt" height="237pt"
 viewBox="0.00 0.00 444.00 236.59" xmlns="http://www.w3.org/2000/svg" xmlns:xlink="http://www.w3.org/1999/xlink">
<g id="graph0" class="graph" transform="scale(1 1) rotate(0) translate(4 232.59)">
<polygon fill="white" stroke="transparent" points="-4,4 -4,-232.59 440,-232.59 440,4 -4,4"/>
<!-- Blob Size Ef. -->
<g id="node1" class="node">
<title>Blob Size Ef.</title>
<polygon fill="lightgray" stroke="black" points="284.38,-228.59 220.38,-228.59 220.38,-210.59 284.38,-210.59 284.38,-228.59"/>
<text text-anchor="middle" x="252.38" y="-217.39" font-family="Times New Roman,serif" font-size="9.00">Blob Size Ef.</text>
</g>
<!-- Acción 0 -->
<g id="node4" class="node">
<title>Acción 0</title>
<ellipse fill="lightblue" stroke="black" cx="64.38" cy="-34.65" rx="34.8" ry="34.8"/>
<text text-anchor="middle" x="64.38" y="-32.45" font-family="Times New Roman,serif" font-size="9.00">Acción 0</text>
</g>
<!-- Blob Size Ef.&#45;&gt;Acción 0 -->
<g id="edge1" class="edge">
<title>Blob Size Ef.&#45;&gt;Acción 0</title>
<path fill="none" stroke="red" stroke-width="0.47" d="M251.38,-210.38C248.48,-190.08 238.42,-136.91 209.38,-105.3 182.08,-75.56 139.38,-57.2 107.38,-46.85"/>
<polygon fill="red" stroke="red" stroke-width="0.47" points="108.41,-43.51 97.82,-43.89 106.34,-50.19 108.41,-43.51"/>
</g>
<!-- Acción 1 -->
<g id="node5" class="node">
<title>Acción 1</title>
<ellipse fill="lightblue" stroke="black" cx="291.38" cy="-139.94" rx="34.8" ry="34.8"/>
<text text-anchor="middle" x="291.38" y="-137.74" font-family="Times New Roman,serif" font-size="9.00">Acción 1</text>
</g>
<!-- Blob Size Ef.&#45;&gt;Acción 1 -->
<g id="edge2" class="edge">
<title>Blob Size Ef.&#45;&gt;Acción 1</title>
<path fill="none" stroke="red" stroke-width="0.12" d="M256.41,-210.58C260.1,-203.24 265.84,-191.8 271.62,-180.3"/>
<polygon fill="red" stroke="red" stroke-width="0.12" points="274.85,-181.65 276.22,-171.15 268.6,-178.51 274.85,-181.65"/>
</g>
<!-- Acción 2 -->
<g id="node6" class="node">
<title>Acción 2</title>
<ellipse fill="lightblue" stroke="black" cx="377.38" cy="-34.65" rx="34.8" ry="34.8"/>
<text text-anchor="middle" x="377.38" y="-32.45" font-family="Times New Roman,serif" font-size="9.00">Acción 2</text>
</g>
<!-- Blob Size Ef.&#45;&gt;Acción 2 -->
<g id="edge3" class="edge">
<title>Blob Size Ef.&#45;&gt;Acción 2</title>
<path fill="none" stroke="green" stroke-width="0.43" d="M279.13,-210.54C297.42,-203.73 320.88,-192.23 335.38,-174.59 357.58,-147.61 368.06,-109.1 372.99,-79.46"/>
<polygon fill="green" stroke="green" stroke-width="0.43" points="376.48,-79.79 374.52,-69.38 369.56,-78.74 376.48,-79.79"/>
</g>
<!-- Acción 3 -->
<g id="node7" class="node">
<title>Acción 3</title>
<ellipse fill="lightblue" stroke="black" cx="165.38" cy="-139.94" rx="34.8" ry="34.8"/>
<text text-anchor="middle" x="165.38" y="-137.74" font-family="Times New Roman,serif" font-size="9.00">Acción 3</text>
</g>
<!-- Blob Size Ef.&#45;&gt;Acción 3 -->
<g id="edge4" class="edge">
<title>Blob Size Ef.&#45;&gt;Acción 3</title>
<path fill="none" stroke="green" stroke-width="0.57" d="M243.4,-210.58C232.88,-201.19 214.84,-185.08 198.76,-170.73"/>
<polygon fill="green" stroke="green" stroke-width="0.57" points="200.85,-167.91 191.06,-163.86 196.19,-173.13 200.85,-167.91"/>
</g>
<!-- Dist Centro -->
<g id="node2" class="node">
<title>Dist Centro</title>
<polygon fill="lightgray" stroke="black" points="131.38,-228.59 73.38,-228.59 73.38,-210.59 131.38,-210.59 131.38,-228.59"/>
<text text-anchor="middle" x="102.38" y="-217.39" font-family="Times New Roman,serif" font-size="9.00">Dist Centro</text>
</g>
<!-- Dist Centro&#45;&gt;Acción 0 -->
<g id="edge5" class="edge">
<title>Dist Centro&#45;&gt;Acción 0</title>
<path fill="none" stroke="green" stroke-width="0.35" d="M99.47,-210.58C96.37,-201.83 91.5,-187.36 88.38,-174.59 80.66,-142.96 74.48,-106.69 70.33,-79.14"/>
<polygon fill="green" stroke="green" stroke-width="0.35" points="73.76,-78.42 68.84,-69.04 66.84,-79.44 73.76,-78.42"/>
</g>
<!-- Dist Centro&#45;&gt;Acción 1 -->
<g id="edge6" class="edge">
<title>Dist Centro&#45;&gt;Acción 1</title>
<path fill="none" stroke="red" stroke-width="0.44" d="M121.9,-210.58C151.96,-198.23 210.27,-174.27 250.01,-157.94"/>
<polygon fill="red" stroke="red" stroke-width="0.44" points="251.52,-161.11 259.44,-154.07 248.86,-154.63 251.52,-161.11"/>
</g>
<!-- Dist Centro&#45;&gt;Acción 2 -->
<g id="edge7" class="edge">
<title>Dist Centro&#45;&gt;Acción 2</title>
<path fill="none" stroke="green" stroke-width="0.25" stroke-dasharray="1,5" d="M101.08,-210.5C98.27,-190.03 93.95,-135.61 121.38,-105.3 149.55,-74.18 267.36,-52.07 332.9,-41.91"/>
<polygon fill="green" stroke="green" stroke-width="0.25" points="333.59,-45.35 342.95,-40.38 332.54,-38.43 333.59,-45.35"/>
</g>
<!-- Dist Centro&#45;&gt;Acción 3 -->
<g id="edge8" class="edge">
<title>Dist Centro&#45;&gt;Acción 3</title>
<path fill="none" stroke="green" stroke-width="0.29" d="M108.89,-210.58C115.71,-202.17 126.9,-188.38 137.52,-175.29"/>
<polygon fill="green" stroke="green" stroke-width="0.29" points="140.44,-177.25 144.02,-167.28 135,-172.84 140.44,-177.25"/>
</g>
<!-- 20 -->
<g id="node8" class="node">
<title>20</title>
<ellipse fill="white" stroke="black" cx="18.38" cy="-139.94" rx="18.27" ry="18.27"/>
<text text-anchor="middle" x="18.38" y="-137.74" font-family="Times New Roman,serif" font-size="9.00">20</text>
</g>
<!-- Dist Centro&#45;&gt;20 -->
<g id="edge12" class="edge">
<title>Dist Centro&#45;&gt;20</title>
<path fill="none" stroke="green" stroke-width="0.25" d="M92.14,-210.47C81.44,-201.87 64.32,-187.74 50.38,-174.59 46.06,-170.51 41.57,-165.99 37.37,-161.62"/>
<polygon fill="green" stroke="green" stroke-width="0.25" points="39.63,-158.92 30.22,-154.05 34.54,-163.72 39.63,-158.92"/>
</g>
<!-- IR Front -->
<g id="node3" class="node">
<title>IR Front</title>
<polygon fill="lightgray" stroke="black" points="398.88,-228.59 351.88,-228.59 351.88,-210.59 398.88,-210.59 398.88,-228.59"/>
<text text-anchor="middle" x="375.38" y="-217.39" font-family="Times New Roman,serif" font-size="9.00">IR Front</text>
</g>
<!-- IR Front&#45;&gt;Acción 1 -->
<g id="edge9" class="edge">
<title>IR Front&#45;&gt;Acción 1</title>
<path fill="none" stroke="green" stroke-width="0.23" d="M366.71,-210.58C356.63,-201.25 339.38,-185.31 323.94,-171.03"/>
<polygon fill="green" stroke="green" stroke-width="0.23" points="326.26,-168.41 316.54,-164.2 321.51,-173.55 326.26,-168.41"/>
</g>
<!-- IR Front&#45;&gt;Acción 2 -->
<g id="edge10" class="edge">
<title>IR Front&#45;&gt;Acción 2</title>
<path fill="none" stroke="green" stroke-width="0.72" stroke-dasharray="1,5" d="M390.91,-210.49C403.35,-203.03 419.92,-190.69 427.38,-174.59 440.34,-146.65 436.82,-134.61 427.38,-105.3 423.13,-92.09 415.35,-79.26 407.16,-68.29"/>
<polygon fill="green" stroke="green" stroke-width="0.72" points="409.81,-65.99 400.88,-60.29 404.3,-70.31 409.81,-65.99"/>
</g>
<!-- IR Front&#45;&gt;Acción 3 -->
<g id="edge11" class="edge">
<title>IR Front&#45;&gt;Acción 3</title>
<path fill="none" stroke="green" stroke-width="0.33" d="M351.65,-210.89C325.84,-202.41 283.45,-188.18 247.38,-174.59 234.07,-169.58 219.68,-163.8 206.73,-158.46"/>
<polygon fill="green" stroke="green" stroke-width="0.33" points="207.72,-155.08 197.15,-154.48 205.04,-161.55 207.72,-155.08"/>
</g>
<!-- 24 -->
<g id="node9" class="node">
<title>24</title>
<ellipse fill="white" stroke="black" cx="400.38" cy="-139.94" rx="18.27" ry="18.27"/>
<text text-anchor="middle" x="400.38" y="-137.74" font-family="Times New Roman,serif" font-size="9.00">24</text>
</g>
<!-- IR Front&#45;&gt;24 -->
<g id="edge14" class="edge">
<title>IR Front&#45;&gt;24</title>
<path fill="none" stroke="green" stroke-width="0.37" d="M377.97,-210.58C381.21,-200.5 386.94,-182.7 391.8,-167.62"/>
<polygon fill="green" stroke="green" stroke-width="0.37" points="395.24,-168.34 394.98,-157.75 388.58,-166.19 395.24,-168.34"/>
</g>
<!-- 20&#45;&gt;Acción 0 -->
<g id="edge13" class="edge">
<title>20&#45;&gt;Acción 0</title>
<path fill="none" stroke="green" stroke-width="0.42" d="M25.57,-122.8C31.15,-110.28 39.13,-92.36 46.4,-76.02"/>
<polygon fill="green" stroke="green" stroke-width="0.42" points="49.71,-77.2 50.58,-66.64 43.32,-74.35 49.71,-77.2"/>
</g>
<!-- 24&#45;&gt;Acción 2 -->
<g id="edge15" class="edge">
<title>24&#45;&gt;Acción 2</title>
<path fill="none" stroke="green" stroke-width="0.64" d="M396.59,-121.89C393.95,-110.04 390.31,-93.7 386.91,-78.43"/>
<polygon fill="green" stroke="green" stroke-width="0.64" points="390.31,-77.61 384.72,-68.61 383.48,-79.13 390.31,-77.61"/>
</g>
</g>
</svg>
