<?xml version="1.0" encoding="UTF-8" standalone="no"?>
<!DOCTYPE svg PUBLIC "-//W3C//DTD SVG 1.1//EN"
 "http://www.w3.org/Graphics/SVG/1.1/DTD/svg11.dtd">
<!-- Generated by graphviz version 2.50.0 (0)
 -->
<!-- Pages: 1 -->
<svg width="262pt" height="319pt"
 viewBox="0.00 0.00 261.98 319.26" xmlns="http://www.w3.org/2000/svg" xmlns:xlink="http://www.w3.org/1999/xlink">
<g id="graph0" class="graph" transform="scale(1 1) rotate(0) translate(4 315.26)">
<polygon fill="white" stroke="transparent" points="-4,4 -4,-315.26 257.98,-315.26 257.98,4 -4,4"/>
<!-- IR Izq -->
<g id="node1" class="node">
<title>IR Izq</title>
<polygon fill="lightgray" stroke="black" points="253.98,-311.26 214.98,-311.26 214.98,-293.26 253.98,-293.26 253.98,-311.26"/>
<text text-anchor="middle" x="234.48" y="-300.06" font-family="Times New Roman,serif" font-size="9.00">IR Izq</text>
</g>
<!-- Vel Izq -->
<g id="node4" class="node">
<title>Vel Izq</title>
<ellipse fill="lightblue" stroke="black" cx="149.48" cy="-127.22" rx="28.98" ry="28.98"/>
<text text-anchor="middle" x="149.48" y="-125.02" font-family="Times New Roman,serif" font-size="9.00">Vel Izq</text>
</g>
<!-- IR Izq&#45;&gt;Vel Izq -->
<g id="edge1" class="edge">
<title>IR Izq&#45;&gt;Vel Izq</title>
<path fill="none" stroke="red" stroke-width="0.86" d="M232.38,-293C227.46,-274.35 214.17,-227.82 195.48,-192.21 189.37,-180.57 181.36,-168.65 173.75,-158.3"/>
<polygon fill="red" stroke="red" stroke-width="0.86" points="176.31,-155.89 167.49,-150.02 170.73,-160.11 176.31,-155.89"/>
</g>
<!-- Detectar -->
<g id="node6" class="node">
<title>Detectar</title>
<ellipse fill="lightblue" stroke="black" cx="153.48" cy="-224.74" rx="32.55" ry="32.55"/>
<text text-anchor="middle" x="153.48" y="-222.54" font-family="Times New Roman,serif" font-size="9.00">Detectar</text>
</g>
<!-- IR Izq&#45;&gt;Detectar -->
<g id="edge2" class="edge">
<title>IR Izq&#45;&gt;Detectar</title>
<path fill="none" stroke="green" stroke-width="0.3" d="M225.81,-293.18C215.94,-283.98 199.26,-268.42 184.4,-254.56"/>
<polygon fill="green" stroke="green" stroke-width="0.3" points="186.54,-251.78 176.84,-247.52 181.77,-256.9 186.54,-251.78"/>
</g>
<!-- IR Centro -->
<g id="node2" class="node">
<title>IR Centro</title>
<polygon fill="lightgray" stroke="black" points="179.48,-311.26 127.48,-311.26 127.48,-293.26 179.48,-293.26 179.48,-311.26"/>
<text text-anchor="middle" x="153.48" y="-300.06" font-family="Times New Roman,serif" font-size="9.00">IR Centro</text>
</g>
<!-- Vel Der -->
<g id="node5" class="node">
<title>Vel Der</title>
<ellipse fill="lightblue" stroke="black" cx="69.48" cy="-31.11" rx="31.23" ry="31.23"/>
<text text-anchor="middle" x="69.48" y="-28.91" font-family="Times New Roman,serif" font-size="9.00">Vel Der</text>
</g>
<!-- IR Centro&#45;&gt;Vel Der -->
<g id="edge3" class="edge">
<title>IR Centro&#45;&gt;Vel Der</title>
<path fill="none" stroke="green" stroke-width="0.25" stroke-dasharray="1,5" d="M165.29,-293.06C175.46,-285.21 189.43,-272.36 195.48,-257.26 221.8,-191.57 225.82,-157.71 187.48,-98.23 169.63,-70.54 135.92,-53.34 109.08,-43.46"/>
<polygon fill="green" stroke="green" stroke-width="0.25" points="110.14,-40.12 99.54,-40.14 107.84,-46.73 110.14,-40.12"/>
</g>
<!-- IR Centro&#45;&gt;Detectar -->
<g id="edge4" class="edge">
<title>IR Centro&#45;&gt;Detectar</title>
<path fill="none" stroke="green" stroke-width="0.17" d="M153.48,-293.18C153.48,-286.8 153.48,-277.36 153.48,-267.55"/>
<polygon fill="green" stroke="green" stroke-width="0.17" points="156.98,-267.31 153.48,-257.31 149.98,-267.31 156.98,-267.31"/>
</g>
<!-- 13 -->
<g id="node7" class="node">
<title>13</title>
<ellipse fill="white" stroke="black" cx="46.48" cy="-224.74" rx="18.27" ry="18.27"/>
<text text-anchor="middle" x="46.48" y="-222.54" font-family="Times New Roman,serif" font-size="9.00">13</text>
</g>
<!-- IR Centro&#45;&gt;13 -->
<g id="edge8" class="edge">
<title>IR Centro&#45;&gt;13</title>
<path fill="none" stroke="green" stroke-width="0.23" d="M142.03,-293.18C124.8,-281.02 91.85,-257.76 69.52,-242"/>
<polygon fill="green" stroke="green" stroke-width="0.23" points="71.44,-239.07 61.25,-236.16 67.4,-244.79 71.44,-239.07"/>
</g>
<!-- IR Der -->
<g id="node3" class="node">
<title>IR Der</title>
<polygon fill="lightgray" stroke="black" points="87.98,-311.26 46.98,-311.26 46.98,-293.26 87.98,-293.26 87.98,-311.26"/>
<text text-anchor="middle" x="67.48" y="-300.06" font-family="Times New Roman,serif" font-size="9.00">IR Der</text>
</g>
<!-- IR Der&#45;&gt;Vel Izq -->
<g id="edge5" class="edge">
<title>IR Der&#45;&gt;Vel Izq</title>
<path fill="none" stroke="green" stroke-width="0.3" d="M70.27,-293.14C76.7,-274.78 93.36,-228.8 111.48,-192.21 116.66,-181.75 122.91,-170.7 128.84,-160.78"/>
<polygon fill="green" stroke="green" stroke-width="0.3" points="131.95,-162.41 134.15,-152.04 125.97,-158.77 131.95,-162.41"/>
</g>
<!-- IR Der&#45;&gt;Vel Der -->
<g id="edge6" class="edge">
<title>IR Der&#45;&gt;Vel Der</title>
<path fill="none" stroke="red" stroke-width="0.2" d="M53.58,-293.16C42.02,-285.55 26.4,-272.99 19.48,-257.26 -8.98,-192.56 -3.01,-165.24 19.48,-98.23 23.97,-84.85 32.35,-72.03 40.98,-61.29"/>
<polygon fill="red" stroke="red" stroke-width="0.2" points="43.78,-63.41 47.57,-53.52 38.44,-58.88 43.78,-63.41"/>
</g>
<!-- IR Der&#45;&gt;Detectar -->
<g id="edge7" class="edge">
<title>IR Der&#45;&gt;Detectar</title>
<path fill="none" stroke="red" stroke-width="0.39" d="M76.68,-293.18C87.41,-283.76 105.71,-267.69 121.76,-253.6"/>
<polygon fill="red" stroke="red" stroke-width="0.39" points="124.2,-256.1 129.41,-246.87 119.59,-250.84 124.2,-256.1"/>
</g>
<!-- IR Der&#45;&gt;13 -->
<g id="edge12" class="edge">
<title>IR Der&#45;&gt;13</title>
<path fill="none" stroke="green" stroke-width="0.28" d="M65.23,-293.18C62.54,-283.5 57.9,-266.8 53.9,-252.44"/>
<polygon fill="green" stroke="green" stroke-width="0.28" points="57.2,-251.23 51.15,-242.53 50.46,-253.1 57.2,-251.23"/>
</g>
<!-- 13&#45;&gt;Vel Izq -->
<g id="edge13" class="edge">
<title>13&#45;&gt;Vel Izq</title>
<path fill="none" stroke="red" stroke-width="0.58" d="M59.12,-211.02C64.96,-205.22 72.01,-198.31 78.48,-192.21 92.08,-179.39 107.46,-165.47 120.41,-153.89"/>
<polygon fill="red" stroke="red" stroke-width="0.58" points="122.99,-156.28 128.13,-147.01 118.33,-151.05 122.99,-156.28"/>
</g>
<!-- 13&#45;&gt;Vel Der -->
<g id="edge9" class="edge">
<title>13&#45;&gt;Vel Der</title>
<path fill="none" stroke="red" stroke-width="0.22" d="M54.69,-208.16C61.24,-194.79 69.9,-174.81 73.48,-156.21 78.83,-128.43 77.64,-96.51 75.21,-72.01"/>
<polygon fill="red" stroke="red" stroke-width="0.22" points="78.68,-71.55 74.11,-61.99 71.73,-72.31 78.68,-71.55"/>
</g>
<!-- 25 -->
<g id="node8" class="node">
<title>25</title>
<ellipse fill="white" stroke="black" cx="46.48" cy="-127.22" rx="18.27" ry="18.27"/>
<text text-anchor="middle" x="46.48" y="-125.02" font-family="Times New Roman,serif" font-size="9.00">25</text>
</g>
<!-- 13&#45;&gt;25 -->
<g id="edge10" class="edge">
<title>13&#45;&gt;25</title>
<path fill="none" stroke="green" stroke-width="0.2" d="M46.48,-206.22C46.48,-192.08 46.48,-171.93 46.48,-155.66"/>
<polygon fill="green" stroke="green" stroke-width="0.2" points="49.98,-155.63 46.48,-145.63 42.98,-155.63 49.98,-155.63"/>
</g>
<!-- 25&#45;&gt;Vel Der -->
<g id="edge11" class="edge">
<title>25&#45;&gt;Vel Der</title>
<path fill="none" stroke="green" stroke-width="0.26" d="M50.7,-108.96C53.28,-98.39 56.7,-84.41 59.91,-71.27"/>
<polygon fill="green" stroke="green" stroke-width="0.26" points="63.33,-72.01 62.3,-61.46 56.53,-70.35 63.33,-72.01"/>
</g>
</g>
</svg>
